<svg xmlns="http://www.w3.org/2000/svg" viewBox="0 0 64 64">
  <defs>
    <linearGradient id="g" x1="8" y1="6" x2="58" y2="60" gradientUnits="userSpaceOnUse">
      <stop stop-color="#245bd7"/>
      <stop offset="1" stop-color="#09b8ee"/>
    </linearGradient>
  </defs>
  <rect width="64" height="64" rx="15" fill="url(#g)"/>
  <path d="M25 17c-4 0-6 2-6 6v5c0 2-1 3-4 3v4c3 0 4 1 4 3v4c0 4 2 6 6 6h3v-5h-2c-1 0-2-1-2-2v-5c0-2-1-3-3-3 2 0 3-2 3-4v-5c0-1 1-2 2-2h2v-5h-3zm14 0h-3v5h2c1 0 2 1 2 2v5c0 2 1 4 3 4-2 0-3 1-3 3v5c0 1-1 2-2 2h-2v5h3c4 0 6-2 6-6v-4c0-2 1-3 4-3v-4c-3 0-4-1-4-3v-5c0-4-2-6-6-6z" fill="white"/>
</svg>
